 <svg  version="1.0" xmlns="http://www.w3.org/2000/svg"  width="300.000000pt" height="188.000000pt" viewBox="0 0 300.000000 188.000000"  preserveAspectRatio="xMidYMid meet">  <g transform="translate(0.000000,188.000000) scale(0.050000,-0.050000)" fill="#ffffff" stroke="none"> <path d="M872 2547 c-586 -180 -666 -1027 -122 -1290 l80 -39 -77 68 c-75 65 -76 69 -62 164 14 92 12 99 -50 149 l-65 53 36 212 36 213 159 62 c87 34 161 60 163 57 3 -3 20 -78 40 -166 57 -264 63 -261 139 60 27 113 20 112 213 37 l132 -51 36 -212 37 -211 -64 -53 c-59 -50 -62 -59 -50 -149 13 -93 11 -98 -65 -162 -68 -58 -71 -65 -28 -54 90 22 309 261 357 391 202 541 -300 1088 -845 921z m281 -189 c25 -29 22 -57 -26 -228 -31 -107 -58 -187 -61 -177 -3 9 -28 96 -54 193 l-49 177 49 71 c26 39 49 86 50 104 1 18 15 1 31 -38 17 -38 44 -85 60 -102z"/> <path d="M5685 2246 c-60 -8 -65 -14 -66 -82 l-1 -74 -39 75 c-36 67 -48 75 -119 75 l-80 0 0 -320 0 -320 49 0 c48 0 50 5 55 165 l6 165 83 -160 c74 -143 90 -161 145 -166 l62 -7 0 332 c0 182 -7 330 -15 328 -8 -2 -44 -7 -80 -11z"/> <path d="M2520 2146 c0 -53 -6 -197 -13 -321 l-13 -225 52 0 53 0 5 200 6 200 68 -155 c38 -85 75 -162 82 -171 8 -9 55 70 106 175 115 238 120 238 103 -16 -9 -132 -7 -212 6 -220 29 -18 68 591 40 619 -7 7 -63 -89 -126 -213 l-113 -226 -60 139 c-33 76 -71 174 -85 218 -40 127 -111 125 -111 -4z"/> <path d="M3183 1934 c-95 -350 -92 -334 -53 -334 16 0 35 25 41 55 29 128 25 125 139 125 l108 0 40 -90 c29 -66 51 -90 83 -90 23 0 39 7 36 15 -4 8 -35 69 -69 135 -34 66 -96 203 -138 305 -42 102 -82 185 -90 185 -8 0 -51 -138 -97 -306z m166 11 c12 -40 7 -45 -48 -45 -68 0 -74 18 -38 120 l23 66 24 -48 c14 -26 31 -68 39 -93z"/> <path d="M4100 2210 c0 -19 19 -30 50 -30 l50 0 0 -280 0 -280 100 -3 c55 -2 116 -4 135 -5 32 -2 34 22 28 283 l-7 285 52 0 c33 0 52 11 52 30 0 25 -39 30 -230 30 -191 0 -230 -5 -230 -30z"/> <path d="M4991 2215 c-37 -113 -166 -607 -160 -612 25 -26 70 28 81 96 l13 81 115 0 115 0 34 -90 c25 -66 45 -90 75 -90 25 0 36 10 29 25 -5 14 -60 136 -122 271 -61 135 -116 268 -123 295 -13 52 -44 65 -57 24z m65 -201 c36 -99 30 -114 -38 -114 -51 0 -60 6 -49 35 8 19 19 60 25 90 15 73 33 69 62 -11z"/> <path d="M3640 1910 c0 -273 4 -310 32 -310 29 0 32 24 24 180 -4 99 -1 180 8 180 8 0 76 -81 149 -180 83 -112 148 -180 171 -180 52 0 51 2 -104 200 -152 195 -163 220 -94 220 120 0 185 141 83 180 -29 11 -101 20 -160 20 l-109 0 0 -310z m238 223 c30 -37 -4 -63 -103 -81 -73 -13 -75 -12 -75 47 0 68 129 92 178 34z"/> <path d="M4640 2033 c0 -103 -6 -242 -13 -310 l-13 -123 63 0 63 0 0 217 c0 120 6 259 13 310 l12 93 -62 0 -63 0 0 -187z"/> <path d="M748 1825 c-6 -19 -20 -56 -30 -81 -24 -62 -27 -58 57 -85 101 -32 100 -31 116 -176 15 -126 14 -127 -31 -113 l-46 15 46 -78 c111 -185 309 -185 420 0 l46 78 -43 -14 c-42 -13 -43 -10 -32 103 17 159 15 155 108 183 88 27 88 26 39 158 -21 55 -27 55 -97 6 -31 -22 -60 -35 -67 -29 -53 54 -115 -64 -108 -207 6 -118 0 -158 -27 -191 l-34 -42 -26 49 c-17 31 -25 103 -23 193 4 140 -57 252 -109 199 -7 -6 -37 6 -68 28 -68 48 -77 48 -91 4z"/> <path d="M2440 1520 c0 -40 13 -40 1700 -40 1687 0 1700 0 1700 40 0 40 -13 40 -1700 40 -1687 0 -1700 0 -1700 -40z"/> </g> </svg> 